<svg width="256" height="256" viewBox="0 0 256 256" fill="none" xmlns="http://www.w3.org/2000/svg">
  <!-- Background Circle -->
  <circle cx="128" cy="128" r="128" fill="url(#gradient1)"/>

  <!-- Gradient Definitions -->
  <defs>
    <linearGradient id="gradient1" x1="0" y1="0" x2="256" y2="256">
      <stop offset="0%" style="stop-color:#2563eb;stop-opacity:1" />
      <stop offset="50%" style="stop-color:#06b6d4;stop-opacity:1" />
      <stop offset="100%" style="stop-color:#2563eb;stop-opacity:1" />
    </linearGradient>
    <linearGradient id="gradient2" x1="0" y1="0" x2="150" y2="150">
      <stop offset="0%" style="stop-color:#60a5fa;stop-opacity:1" />
      <stop offset="100%" style="stop-color:#3b82f6;stop-opacity:1" />
    </linearGradient>
  </defs>

  <!-- Developer Icon - Person with Laptop -->
  <!-- Head -->
  <circle cx="128" cy="85" r="28" fill="#f8fafc" opacity="0.95"/>

  <!-- Body/Shoulders -->
  <ellipse cx="128" cy="140" rx="45" ry="35" fill="#f8fafc" opacity="0.95"/>

  <!-- Laptop Base -->
  <rect x="98" y="150" width="60" height="35" rx="3" fill="#1e293b" opacity="0.9"/>
  <rect x="100" y="152" width="56" height="30" rx="2" fill="#334155" opacity="0.9"/>

  <!-- Laptop Screen -->
  <rect x="108" y="130" width="40" height="25" rx="2" fill="#0f172a" opacity="0.9"/>
  <rect x="110" y="132" width="36" height="20" rx="1" fill="#22d3ee" opacity="0.3"/>

  <!-- Code Lines on Screen -->
  <line x1="113" y1="137" x2="130" y2="137" stroke="#22d3ee" stroke-width="1.5" opacity="0.8"/>
  <line x1="113" y1="141" x2="140" y2="141" stroke="#22d3ee" stroke-width="1.5" opacity="0.8"/>
  <line x1="113" y1="145" x2="125" y2="145" stroke="#22d3ee" stroke-width="1.5" opacity="0.8"/>

  <!-- Decorative Code Brackets -->
  <text x="70" y="100" font-family="monospace" font-size="24" fill="#ffffff" opacity="0.2" font-weight="bold">&lt;/&gt;</text>
  <text x="160" y="100" font-family="monospace" font-size="24" fill="#ffffff" opacity="0.2" font-weight="bold">{}</text>

  <!-- Decorative Dots -->
  <circle cx="50" cy="180" r="3" fill="#ffffff" opacity="0.3"/>
  <circle cx="206" cy="180" r="3" fill="#ffffff" opacity="0.3"/>
  <circle cx="50" cy="70" r="2" fill="#ffffff" opacity="0.4"/>
  <circle cx="206" cy="70" r="2" fill="#ffffff" opacity="0.4"/>
</svg>
