<svg width="20" height="20" viewBox="0 0 20 20" fill="none" xmlns="http://www.w3.org/2000/svg">
  <!-- Rocket -->
  <path d="M10 2C10 2 14 3 15 8C15 10 14 14 10 18C6 14 5 10 5 8C6 3 10 2 10 2Z"
        fill="url(#rocketGradient)" opacity="0.9"/>
  <defs>
    <linearGradient id="rocketGradient" x1="10" y1="2" x2="10" y2="18">
      <stop offset="0%" style="stop-color:#60a5fa"/>
      <stop offset="100%" style="stop-color:#3b82f6"/>
    </linearGradient>
  </defs>
  <ellipse cx="10" cy="7" rx="2" ry="2.5" fill="#1e293b" opacity="0.8"/>
  <ellipse cx="10" cy="7" rx="1" ry="1.5" fill="#22d3ee" opacity="0.6"/>
  <!-- Flames -->
  <path d="M7 16L6 18L7 17.5L8 18L7 16Z" fill="#f97316" opacity="0.8"/>
  <path d="M13 16L12 18L13 17.5L14 18L13 16Z" fill="#f97316" opacity="0.8"/>
  <path d="M10 17L9 19L10 18.5L11 19L10 17Z" fill="#fb923c" opacity="0.9"/>
</svg>
